<svg width="35" height="23" viewBox="0 0 1512 982" fill="none" xmlns="http://www.w3.org/2000/svg">
<rect width="1512" height="982" fill="white"/>
<rect width="30" height="163.049" transform="matrix(0.944347 0.328952 -0.518941 0.85481 477.613 410)" fill="#2947AB"/>
<rect width="30" height="150.525" transform="matrix(0.944347 0.328952 -0.518941 0.85481 531.114 410)" fill="#2947AB"/>
<rect x="421" y="529" width="127" height="30" fill="#2947AB"/>
<rect x="403" y="390" width="159" height="30" fill="#2947AB"/>
<path d="M623.523 521.163V474.182H646.215V556H624.429V541.138H623.577C621.73 545.933 618.658 549.786 614.362 552.697C610.1 555.609 604.898 557.065 598.754 557.065C593.286 557.065 588.474 555.822 584.319 553.337C580.164 550.851 576.915 547.317 574.571 542.737C572.263 538.156 571.091 532.669 571.055 526.277V474.182H593.747V522.229C593.783 527.058 595.079 530.876 597.636 533.681C600.192 536.487 603.619 537.889 607.916 537.889C610.651 537.889 613.207 537.268 615.587 536.025C617.966 534.746 619.884 532.864 621.339 530.379C622.831 527.893 623.559 524.821 623.523 521.163ZM732.441 497.513L711.667 498.791C711.312 497.016 710.548 495.418 709.377 493.997C708.205 492.541 706.66 491.387 704.742 490.535C702.86 489.647 700.605 489.203 697.977 489.203C694.462 489.203 691.497 489.949 689.082 491.44C686.667 492.896 685.46 494.849 685.46 497.3C685.46 499.253 686.241 500.904 687.803 502.254C689.366 503.603 692.047 504.686 695.847 505.503L710.655 508.486C718.61 510.119 724.54 512.747 728.446 516.369C732.352 519.991 734.306 524.75 734.306 530.645C734.306 536.007 732.725 540.712 729.565 544.761C726.44 548.809 722.143 551.969 716.674 554.242C711.241 556.479 704.973 557.598 697.871 557.598C687.04 557.598 678.411 555.343 671.983 550.833C665.591 546.288 661.845 540.109 660.744 532.296L683.063 531.124C683.737 534.427 685.371 536.948 687.963 538.688C690.556 540.393 693.876 541.245 697.924 541.245C701.901 541.245 705.097 540.482 707.512 538.955C709.963 537.392 711.205 535.386 711.241 532.935C711.205 530.876 710.335 529.189 708.631 527.875C706.926 526.526 704.298 525.496 700.747 524.786L686.578 521.962C678.588 520.364 672.64 517.594 668.734 513.653C664.863 509.711 662.928 504.686 662.928 498.578C662.928 493.322 664.348 488.795 667.189 484.995C670.066 481.195 674.096 478.266 679.281 476.206C684.501 474.146 690.609 473.116 697.605 473.116C707.938 473.116 716.07 475.3 722.001 479.668C727.967 484.036 731.447 489.984 732.441 497.513ZM785.881 557.598C777.465 557.598 770.221 555.893 764.148 552.484C758.112 549.04 753.46 544.175 750.192 537.889C746.925 531.568 745.292 524.093 745.292 515.464C745.292 507.048 746.925 499.661 750.192 493.305C753.46 486.948 758.058 481.994 763.989 478.443C769.955 474.892 776.95 473.116 784.976 473.116C790.374 473.116 795.398 473.987 800.05 475.727C804.738 477.431 808.822 480.006 812.302 483.45C815.817 486.895 818.552 491.227 820.505 496.447C822.458 501.632 823.435 507.705 823.435 514.665V520.897H754.347V506.835H802.075C802.075 503.567 801.364 500.673 799.944 498.152C798.523 495.631 796.553 493.66 794.031 492.239C791.545 490.783 788.651 490.055 785.349 490.055C781.904 490.055 778.85 490.854 776.187 492.452C773.559 494.015 771.499 496.128 770.008 498.791C768.516 501.419 767.753 504.349 767.717 507.58V520.95C767.717 524.999 768.463 528.496 769.955 531.444C771.482 534.391 773.63 536.664 776.4 538.262C779.17 539.86 782.455 540.659 786.254 540.659C788.776 540.659 791.084 540.304 793.179 539.594C795.274 538.884 797.067 537.818 798.559 536.398C800.05 534.977 801.187 533.237 801.968 531.178L822.955 532.562C821.89 537.605 819.706 542.009 816.403 545.773C813.136 549.501 808.911 552.413 803.726 554.509C798.577 556.568 792.629 557.598 785.881 557.598Z" fill="black"/>
<path d="M838.669 556V446.909H861.361V487.925H862.053C863.048 485.723 864.486 483.486 866.368 481.213C868.286 478.905 870.771 476.987 873.825 475.46C876.915 473.898 880.75 473.116 885.331 473.116C891.297 473.116 896.801 474.679 901.844 477.804C906.886 480.893 910.917 485.563 913.935 491.813C916.954 498.028 918.463 505.822 918.463 515.197C918.463 524.324 916.989 532.03 914.042 538.315C911.13 544.565 907.153 549.306 902.11 552.538C897.103 555.734 891.492 557.332 885.278 557.332C880.874 557.332 877.128 556.604 874.038 555.148C870.984 553.692 868.481 551.863 866.528 549.661C864.575 547.424 863.083 545.169 862.053 542.896H861.041V556H838.669ZM860.881 515.091C860.881 519.956 861.556 524.2 862.906 527.822C864.255 531.444 866.208 534.267 868.765 536.291C871.322 538.28 874.429 539.274 878.087 539.274C881.78 539.274 884.905 538.262 887.462 536.238C890.018 534.178 891.954 531.337 893.268 527.715C894.617 524.058 895.292 519.849 895.292 515.091C895.292 510.368 894.635 506.213 893.321 502.626C892.007 499.04 890.072 496.234 887.515 494.21C884.958 492.186 881.815 491.174 878.087 491.174C874.393 491.174 871.268 492.151 868.712 494.104C866.19 496.057 864.255 498.827 862.906 502.413C861.556 506 860.881 510.226 860.881 515.091ZM933.604 556V474.182H955.231V488.617H956.189C957.894 483.823 960.735 480.041 964.712 477.271C968.689 474.501 973.448 473.116 978.988 473.116C984.599 473.116 989.375 474.519 993.317 477.325C997.258 480.094 999.886 483.859 1001.2 488.617H1002.05C1003.72 483.93 1006.74 480.183 1011.11 477.378C1015.51 474.537 1020.71 473.116 1026.72 473.116C1034.35 473.116 1040.55 475.549 1045.31 480.414C1050.1 485.244 1052.5 492.097 1052.5 500.975V556H1029.86V505.45C1029.86 500.904 1028.65 497.495 1026.24 495.222C1023.82 492.95 1020.8 491.813 1017.18 491.813C1013.06 491.813 1009.85 493.127 1007.54 495.755C1005.23 498.347 1004.08 501.774 1004.08 506.036V556H982.077V504.97C982.077 500.957 980.923 497.761 978.615 495.382C976.342 493.003 973.341 491.813 969.613 491.813C967.091 491.813 964.819 492.452 962.795 493.731C960.806 494.974 959.226 496.732 958.054 499.004C956.882 501.241 956.296 503.869 956.296 506.888V556H933.604ZM1113.94 474.182V491.227H1064.67V474.182H1113.94ZM1075.85 454.58H1098.55V530.858C1098.55 532.953 1098.87 534.587 1099.5 535.759C1100.14 536.895 1101.03 537.694 1102.17 538.156C1103.34 538.617 1104.69 538.848 1106.22 538.848C1107.28 538.848 1108.35 538.759 1109.41 538.582C1110.48 538.369 1111.29 538.209 1111.86 538.102L1115.43 554.988C1114.29 555.343 1112.7 555.751 1110.64 556.213C1108.58 556.71 1106.07 557.012 1103.13 557.119C1097.66 557.332 1092.86 556.604 1088.74 554.935C1084.66 553.266 1081.48 550.673 1079.21 547.158C1076.94 543.642 1075.82 539.203 1075.85 533.841V454.58Z" fill="#2947AB"/>
</svg>
